<svg width="24" height="24" viewBox="0 0 24 24" fill="none" xmlns="http://www.w3.org/2000/svg">
<path d="M11.9998 0C18.6274 0 24 5.37251 24 11.9998C24 18.6275 18.6274 24 11.9998 24C5.37263 24 0 18.6275 0 11.9998C0 5.37251 5.37263 0 11.9998 0Z" fill="#00AED6"/>
<path fill-rule="evenodd" clip-rule="evenodd" d="M18.9998 11.6299C18.9086 10.1028 17.6084 8.93179 16.08 8.99993H8.5002C8.22371 8.99993 7.99991 8.77602 7.99991 8.49996C7.99991 8.22389 8.22371 7.99998 8.5002 7.99998H16.18C16.135 6.9649 15.4284 6.07656 14.4298 5.80014C12.1911 5.39995 9.89905 5.39995 7.66001 5.80014C6.38765 6.11272 5.43573 7.17143 5.25991 8.47005C4.90995 10.8236 4.90995 13.2164 5.25991 15.5699C5.52801 16.944 6.61984 18.0075 7.99991 18.2401C10.7758 18.5899 13.5843 18.5899 16.3598 18.2401C17.5966 17.9895 18.5324 16.9732 18.6801 15.7201C18.9341 14.3721 19.0411 13.0008 18.9998 11.6299ZM16.5001 13.3099V13.7501C16.5001 14.0261 16.2763 14.2501 16.0001 14.2501C15.724 14.2501 15.5002 14.0261 15.5002 13.7501V13.3099C15.3385 13.1691 15.2472 12.9643 15.2499 12.7501C15.2499 12.3357 15.5857 11.9998 16.0001 11.9998C16.4142 11.9998 16.7501 12.3357 16.7501 12.7501C16.7477 12.9633 16.6571 13.166 16.5001 13.3099V13.3099Z" fill="white"/>
</svg>
