<svg width="24" height="24" viewBox="0 0 24 24" fill="none" xmlns="http://www.w3.org/2000/svg">
<rect width="24" height="24" rx="12" fill="#EE4E2C"/>
<path fill-rule="evenodd" clip-rule="evenodd" d="M6.65141 8.26302H17.669C18.4011 8.26302 19 8.8253 19 9.51253V16.7505C19 17.4377 18.4011 18 17.669 18H6.33099C5.59894 18 5 17.4377 5 16.7505V7.80949C5 7.48322 5.28592 7.25877 5.63099 7.21712L15.7908 6C16.1384 6 16.4218 6.2661 16.4218 6.59236V7.60355H6.02042C6.02042 8.02931 6.15599 8.2607 6.65634 8.2607L6.65141 8.26302ZM12.8306 16.1928C11.9039 16.3594 10.7134 16.0702 10.0651 15.4153C9.77183 15.1215 10.2451 14.6749 10.5384 14.9734C10.9746 15.413 11.7511 15.619 12.3845 15.6051C13.193 15.5889 13.9127 14.8993 13.4518 14.1288C12.8158 13.0621 11.2507 13.3606 10.4472 12.5229C9.79648 11.8473 10.1046 10.7829 10.8687 10.3108C11.6648 9.81797 13.0426 9.83648 13.6958 10.5422C13.9792 10.8454 13.506 11.2896 13.2225 10.9842C12.6926 10.415 11.443 10.4913 10.9648 11.0791C10.2845 11.9167 11.3025 12.3679 12.0123 12.5692C12.9884 12.8469 14.0704 13.3536 14.2479 14.4042C14.3908 15.2511 13.6908 16.0378 12.8282 16.1951L12.8306 16.1928Z" fill="#FEFEFE"/>
<path fill-rule="evenodd" clip-rule="evenodd" d="M12.8307 16.195C11.9039 16.3616 10.7134 16.0724 10.0652 15.4175C9.77189 15.1237 10.2451 14.6771 10.5384 14.9756C10.9747 15.4152 11.7511 15.6212 12.3846 15.6073C13.193 15.5911 13.9103 14.9015 13.4518 14.131C12.8159 13.0643 11.2508 13.3628 10.4472 12.5251C9.79654 11.8495 10.1046 10.7851 10.8687 10.313C11.6649 9.82016 13.0402 9.84098 13.6958 10.5444C13.9768 10.8475 13.506 11.2918 13.2226 10.9864C12.6927 10.4171 11.443 10.4935 10.9649 11.0812C10.2846 11.9189 11.3025 12.3701 12.0124 12.5714C12.9884 12.8491 14.0705 13.3558 14.2504 14.4064C14.3934 15.2532 13.6934 16.04 12.8307 16.1973V16.195Z" fill="#EE4E2C"/>
</svg>
