<svg width="206" height="165" viewBox="0 0 206 165" fill="none" xmlns="http://www.w3.org/2000/svg">
<g clip-path="url(#clip0_32_1753)">
<path d="M187.163 164.985L187.151 164.87C186.954 162.936 187.181 160.982 187.814 159.144C188.448 157.306 189.473 155.629 190.82 154.228C191.581 153.448 192.438 152.768 193.369 152.202L193.458 152.148L193.487 152.248C193.835 153.44 194.299 154.643 194.511 155.176L194.98 151.357L195.081 151.313C195.545 151.109 196.059 151.049 196.557 151.14C197.056 151.231 197.515 151.47 197.877 151.825C198.252 152.178 198.513 152.636 198.626 153.14C198.739 153.643 198.699 154.168 198.511 154.649C198.344 155.089 198.182 155.546 198.026 155.988C197.49 157.508 196.936 159.079 195.998 160.365C195.279 161.332 194.353 162.126 193.288 162.688C192.224 163.251 191.047 163.568 189.844 163.617L187.163 164.985Z" fill="#F2F2F2"/>
<path d="M90.8061 163.617C89.6033 163.568 88.4265 163.251 87.3618 162.688C86.2971 162.125 85.3713 161.332 84.6521 160.365C83.7146 159.079 83.1601 157.508 82.6239 155.988C82.4678 155.546 82.3064 155.089 82.139 154.649C81.951 154.168 81.911 153.643 82.0241 153.14C82.1371 152.636 82.3981 152.178 82.7733 151.825C83.1351 151.47 83.5947 151.231 84.093 151.14C84.5913 151.049 85.1054 151.109 85.5692 151.313L85.6704 151.357L86.1393 155.176C86.3516 154.643 86.8149 153.44 87.1633 152.248L87.1925 152.148L87.2813 152.202C88.2126 152.768 89.0691 153.448 89.8306 154.228C91.177 155.629 92.2026 157.306 92.8361 159.144C93.4696 160.982 93.6958 162.936 93.499 164.87L93.4867 164.985L90.8061 163.617Z" fill="#F2F2F2"/>
<path d="M60.2803 85.3743C60.2803 85.3743 59.0349 75.294 56.2291 72.2224L49.6254 74.7834L54.8398 88.1061L65.3911 101.433C65.4442 101.927 65.627 102.399 65.9209 102.799C66.2149 103.2 66.6094 103.516 67.0646 103.714C67.5197 103.913 68.0193 103.987 68.5125 103.93C69.0057 103.873 69.475 103.686 69.8728 103.389C70.2706 103.091 70.5827 102.694 70.7774 102.236C70.9721 101.779 71.0425 101.278 70.9814 100.785C70.9204 100.291 70.73 99.8231 70.4297 99.4272C70.1293 99.0313 69.7298 98.722 69.2715 98.5307L60.2803 85.3743Z" fill="#A0616A"/>
<path d="M26.6214 90.9919C26.6214 90.9919 31.1384 81.8973 30.4914 77.7854L23.5727 76.2722L20.5787 90.2639L22.0331 107.208C21.805 107.65 21.6976 108.144 21.7219 108.64C21.7462 109.137 21.9013 109.618 22.1714 110.035C22.4415 110.452 22.817 110.791 23.2599 111.015C23.7027 111.24 24.197 111.344 24.6927 111.315C25.1884 111.287 25.6678 111.128 26.0823 110.854C26.4967 110.58 26.8314 110.202 27.0524 109.756C27.2733 109.311 27.3728 108.815 27.3405 108.319C27.3082 107.823 27.1454 107.345 26.8687 106.932L26.6214 90.9919Z" fill="#A0616A"/>
<path d="M34.6116 160.683H37.8847L39.4416 148.042L34.611 148.043L34.6116 160.683Z" fill="#9E616A"/>
<path d="M34.4964 164.102L44.5613 164.102V163.975C44.5613 162.934 44.1485 161.937 43.4138 161.201C42.6792 160.465 41.6828 160.052 40.6438 160.052H40.6435L38.805 158.656L35.3748 160.052L34.4962 160.052L34.4964 164.102Z" fill="#2F2E41"/>
<path d="M43.5787 158.829L46.7712 159.551L51.0731 147.565L46.361 146.499L43.5787 158.829Z" fill="#9E616A"/>
<path d="M42.7137 162.138L52.5312 164.359L52.5593 164.235C52.7883 163.22 52.6053 162.156 52.0506 161.276C51.496 160.397 50.615 159.774 49.6016 159.544L49.6014 159.544L48.1156 157.776L44.4622 158.382L43.6052 158.188L42.7137 162.138Z" fill="#2F2E41"/>
<path d="M58.3224 126.235C56.3786 132.435 51.407 148.893 51.407 148.893C51.407 148.893 47.1755 149.95 45.8406 148.893C44.5057 147.835 46.168 144.303 46.168 144.303C45.288 140.345 47.2683 136.345 47.3968 132.509C47.1298 130.899 48.5451 129.517 48.6747 127.981C47.7391 127.268 43.1874 116.081 42.2592 112.955C42.7362 122.48 41.5839 136.762 40.2742 145.942C39.6542 150.287 38.7899 149.017 34.3804 149.22C32.4143 148.636 32.7432 144.303 32.7432 144.303V140.696C31.7874 136.658 31.7748 135.785 32.0883 133.811C31.9446 131.716 30.1432 110.05 28.5447 102.717C27.4795 96.8757 40.5349 95.5899 44.2895 94.197C50.5547 91.1746 49.4973 95.4715 52.7967 99.4297C55.9781 106.253 57.852 118.437 58.3224 126.235Z" fill="#2F2E41"/>
<path d="M45.7533 62.8925L42.5857 58.3589H37.0193L32.1077 62.9489L31.6948 103.73L53.9212 106.225L45.7533 62.8925Z" fill="#C19D65"/>
<path d="M43.5509 59.4243L52.3703 63.4656L54.0458 89.5053C54.0458 89.5053 55.46 92.8501 55.5727 93.1795C55.6908 93.525 55.9262 95.2304 55.8243 95.5141C55.5116 96.4293 55.3532 97.3902 55.3556 98.3575C55.432 99.0998 56.2237 100.425 56.4307 101.141C56.5735 101.636 55.683 103.275 55.683 103.275C56.0484 103.826 56.2886 104.45 56.3865 105.104C56.4844 105.758 56.4377 106.425 56.2497 107.059L56.0104 107.865L51.4263 107.21L49.4499 97.4798L49.2413 96.4528L49.0255 95.3901L48.8568 94.5597L48.7068 93.8214L48.581 93.2018L43.5509 59.4243Z" fill="#3F3D56"/>
<path d="M46.8038 64.777L52.3702 63.4656C55.0559 66.593 57.2381 72.7605 58.9589 78.3796C59.0813 78.7795 58.9853 79.332 59.3193 79.5697C59.9262 80.0018 60.2883 80.5232 59.8493 81.3598C59.6816 81.6795 60.0506 82.0476 60.1483 82.3828C60.2306 82.6651 60.1188 83.135 60.3911 83.2162C61.17 83.4483 61.2074 84.1149 60.9026 84.9602L54.3539 88.2388L54.1673 87.937L53.4318 86.7477L50.2667 81.6297L46.8038 64.777Z" fill="#3F3D56"/>
<path d="M35.7095 59.6702L30.7595 64.1213C30.7595 64.1213 29.6013 82.9657 28.8333 90.161C28.8007 90.467 29.2268 91.1977 29.1942 91.5037L29.0024 93.3004L28.8581 94.6524C28.8062 95.1385 28.1784 99.9968 28.1784 99.9968L27.1963 100.653C26.7787 102.529 27.0122 104.492 27.8584 106.217L28.5059 107.538L35.6711 106.743L35.7095 59.6702Z" fill="#3F3D56"/>
<path d="M32.7579 66.9133L30.7595 64.1213L24.5382 68.0556C23.1654 71.8584 21.6597 78.4933 20.8281 84.2634C20.8093 84.394 20.8974 84.6143 20.7727 84.6538C20.3247 84.7961 20.1894 85.0212 20.6702 85.411C20.7262 85.4809 20.7675 85.5613 20.7919 85.6474C20.8162 85.7336 20.8231 85.8238 20.812 85.9126C20.8009 86.0015 20.7721 86.0872 20.7273 86.1647C20.6826 86.2422 20.6227 86.3099 20.5513 86.3638C20.024 86.6149 19.6185 86.8629 20.4673 87.1055C21.0641 87.2762 20.3446 88.3217 20.3006 88.8945L27.5042 90.5338C28.1624 90.3441 28.2872 89.9581 27.9366 89.397C28.4792 89.2331 28.6846 88.9417 28.305 88.429L28.4831 87.9607C29.0882 87.8672 29.0798 87.6161 28.742 87.2802L28.9876 86.6348L30.1236 83.6488L32.7579 66.9133Z" fill="#3F3D56"/>
<path d="M39.0165 57.0807C43.0596 57.0807 46.3372 53.7988 46.3372 49.7504C46.3372 45.702 43.0596 42.4202 39.0165 42.4202C34.9733 42.4202 31.6957 45.702 31.6957 49.7504C31.6957 53.7988 34.9733 57.0807 39.0165 57.0807Z" fill="#A0616A"/>
<path d="M31.6031 54.4735C31.6031 54.4735 33.2155 54.9162 34.1538 55.1626C34.1053 54.4635 33.8029 53.8091 33.6493 53.1251C33.4958 52.4412 33.5291 51.6369 34.0367 51.154C34.5444 50.6711 35.6016 50.8592 35.6834 51.5541C36.1128 50.6346 36.5431 49.7134 36.9743 48.7906C38.2039 51.3247 40.7176 49.1652 43.4584 49.8055C44.8567 50.1353 46.6091 49.9936 47.3478 48.76C46.9327 48.4111 46.5829 47.991 46.3149 47.5193C46.741 47.6445 47.1843 47.7007 47.628 47.6859C47.6179 47.2446 47.502 46.8122 47.2902 46.4251C47.0784 46.038 46.7769 45.7075 46.4109 45.4614C46.0167 45.2034 46.9925 44.2851 46.6484 43.9619C45.9428 43.3022 45.4693 43.7501 45.0524 42.8806C44.7836 42.3428 44.3695 41.8914 43.8571 41.5778C43.3447 41.2641 42.7547 41.1008 42.1542 41.1063C40.9561 41.1344 38.8094 41.1229 38.3446 42.228C36.8632 41.257 34.801 41.5314 33.353 42.55C32.1494 43.3934 30.7796 45.9426 30.4773 47.3817C30.175 48.8208 30.8412 53.2193 31.6031 54.4735Z" fill="#2F2E41"/>
<path d="M64.9588 86.8481C64.8336 86.8481 64.7098 86.8741 64.5951 86.9244C64.4805 86.9748 64.3775 87.0483 64.2927 87.1405C64.2078 87.2327 64.143 87.3415 64.1023 87.4601C64.0616 87.5786 64.0459 87.7043 64.0561 87.8292C65.4389 91.4079 65.2517 95.5504 65.0747 100.238C65.0945 100.464 65.198 100.675 65.365 100.829C65.5319 100.983 65.7503 101.069 65.9774 101.07H71.8207C72.0477 101.069 72.2661 100.983 72.4331 100.829C72.6 100.675 72.7035 100.464 72.7233 100.238C72.2487 95.6842 72.5048 91.5052 73.7419 87.8292C73.7521 87.7043 73.7364 87.5786 73.6957 87.4601C73.655 87.3415 73.5902 87.2327 73.5054 87.1405C73.4205 87.0483 73.3175 86.9748 73.2029 86.9244C73.0882 86.8741 72.9644 86.8481 72.8392 86.8481H64.9588Z" fill="#C19D65"/>
<path d="M74.2098 88.5018L73.7738 86.4283C73.7342 86.2398 73.631 86.0706 73.4816 85.9492C73.3321 85.8278 73.1456 85.7615 72.9531 85.7615H70.2316C70.221 85.7254 70.2037 85.6915 70.1805 85.6617L69.8781 85.2833C69.8496 85.2476 69.8135 85.2188 69.7724 85.199C69.7312 85.1792 69.6862 85.1689 69.6406 85.1689H67.9602C67.9146 85.1689 67.8696 85.1792 67.8285 85.199C67.7874 85.2188 67.7512 85.2476 67.7227 85.2833L67.4203 85.6617C67.3972 85.6915 67.3798 85.7254 67.3692 85.7615H64.845C64.6525 85.7615 64.466 85.8278 64.3165 85.9492C64.1671 86.0706 64.0639 86.2398 64.0242 86.4283L63.5883 88.5018C63.5626 88.6241 63.5645 88.7506 63.5938 88.872C63.6231 88.9935 63.6791 89.1069 63.7577 89.2039C63.8364 89.301 63.9356 89.3792 64.0483 89.433C64.161 89.4867 64.2842 89.5146 64.409 89.5146C67.1934 90.9448 70.1816 90.9798 73.3891 89.5146C73.5139 89.5146 73.6371 89.4867 73.7498 89.433C73.8625 89.3792 73.9617 89.301 74.0404 89.2039C74.119 89.1069 74.175 88.9935 74.2043 88.872C74.2336 88.7506 74.2355 88.6241 74.2098 88.5018Z" fill="#3F3D56"/>
<path d="M148.328 89.5503C148.185 89.0041 147.678 87.336 147.033 88.0729C146.937 88.1822 146.862 87.8305 146.773 87.7014C146.619 87.4779 146.526 86.5234 146.363 86.2717C146.032 85.76 145.621 85.9112 145.285 85.3174C144.322 83.6195 143.424 81.6808 143.089 80.0424C142.064 75.0267 143.476 68.168 143.476 68.168L143.019 58.3983L139.685 58.286V58.0665C139.685 57.6255 139.51 57.2026 139.198 56.8908C138.887 56.579 138.465 56.4038 138.024 56.4038H131.674C131.252 56.404 130.846 56.5651 130.539 56.8543C130.231 57.1435 130.046 57.5391 130.019 57.9607L127.404 57.8727L122.876 72.2781C122.876 72.2781 124.989 77.7157 125.735 82.9931C125.937 84.4164 125.986 85.8574 125.881 87.2911C125.78 88.7447 125.496 90.1797 125.035 91.5619C125.035 91.5619 144.244 95.5901 148 91.8453C148 91.8453 148.584 90.5317 148.328 89.5503Z" fill="#3F3D56"/>
<path d="M172.925 90.6005H168.386V17.4552C168.072 17.2224 167.754 16.9929 167.433 16.7667C167.368 16.7241 167.306 16.6782 167.244 16.6355C165.31 15.2814 163.292 14.0526 161.202 12.957C160.267 11.7024 159.243 10.5168 158.138 9.40955C154.879 6.14718 150.957 3.62578 146.638 2.01685C142.319 0.40791 137.705 -0.250821 133.109 0.0854536C128.513 0.421728 124.044 1.74512 120.004 3.96562C115.965 6.18613 112.45 9.25165 109.7 12.9537C108.285 13.6946 106.908 14.4946 105.568 15.3536C105.44 15.4356 105.312 15.5176 105.188 15.5995C105.185 15.6028 105.181 15.6028 105.178 15.6061C104.946 15.7581 104.756 15.9658 104.624 16.2103C104.492 16.4548 104.424 16.7283 104.425 17.006V90.6005H97.9745C95.1258 90.6005 92.6668 92.9316 92.6799 95.7839C92.6821 96.4344 92.8076 97.0786 93.0499 97.6822C93.143 97.9196 93.2559 98.1488 93.3871 98.3675C93.5544 98.6541 93.7484 98.9241 93.9667 99.174C94.4493 99.7252 95.044 100.167 95.7109 100.469C96.3778 100.772 97.1016 100.928 97.8337 100.928H173.065C174.429 100.926 175.736 100.384 176.702 99.4204C177.668 98.4565 178.213 97.1492 178.219 95.7839C178.232 92.9315 175.773 90.6005 172.925 90.6005ZM149.516 90.6005H123.102L119.461 40.225H153.157L149.516 90.6005Z" fill="#E6E6E6"/>
<path d="M153.775 71.8895L165.064 61.8193L168.394 63.4714L154.855 77.6897L153.775 71.8895Z" fill="#FFB6B6"/>
<path d="M141.154 59.3984L143.019 58.3982C143.019 58.3982 147.613 58.0058 149.488 63.4095L154.46 70.9292L162.519 63.9354L166.012 66.3563L155.855 78.4944L151.631 79.0347L142.498 67.1991L141.154 59.3984Z" fill="#3F3D56"/>
<path d="M144.194 50.755C143.174 57.6716 138.102 58.4006 134.388 54.7898C130.503 51.0124 124.583 55.5089 124.583 50.755C124.583 46.0011 126.727 37.5745 134.388 37.5745C142.313 37.5745 144.887 46.052 144.194 50.755Z" fill="#2F2E41"/>
<path d="M134.355 54.7819C137.999 54.7819 140.953 51.824 140.953 48.1753C140.953 44.5265 137.999 41.5686 134.355 41.5686C130.711 41.5686 127.757 44.5265 127.757 48.1753C127.757 51.824 130.711 54.7819 134.355 54.7819Z" fill="#FFB6B6"/>
<path d="M126.732 47.5269H129.341L130.493 44.2991L130.723 47.5269H131.97L132.642 45.644L132.776 47.5269C134.679 49.2493 138.203 48.6191 142.044 47.5269C142.044 46.6085 141.864 45.6991 141.513 44.8506C141.162 44.002 140.647 43.231 139.999 42.5816C139.35 41.9322 138.58 41.417 137.733 41.0656C136.885 40.7141 135.977 40.5332 135.06 40.5332H133.716C132.799 40.5332 131.891 40.7141 131.043 41.0656C130.196 41.417 129.426 41.9322 128.777 42.5816C128.129 43.231 127.614 44.002 127.263 44.8506C126.912 45.6991 126.732 46.6085 126.732 47.5269Z" fill="#2F2E41"/>
<path d="M114.593 94.8948C115.115 94.8934 115.625 94.7395 116.061 94.4519C116.497 94.1644 116.84 93.7556 117.048 93.2758C117.255 92.7961 117.318 92.2661 117.23 91.7509C117.141 91.2356 116.904 90.7576 116.547 90.3753L120.22 80.6639L120.972 77.418C120.555 77.1557 120.084 76.9919 119.595 76.9388C119.105 76.8857 118.61 76.9449 118.147 77.1117C117.684 77.2785 117.264 77.5487 116.921 77.9017C116.577 78.2548 116.318 78.6815 116.163 79.1495L112.337 90.7298C112.07 91.1361 111.919 91.6071 111.898 92.0927C111.878 92.5784 111.989 93.0605 112.221 93.4878C112.452 93.9151 112.795 94.2716 113.212 94.5194C113.63 94.7671 114.107 94.8969 114.593 94.8948H114.593Z" fill="#FFB6B6"/>
<path d="M159.064 52.1692C158.938 52.1692 158.815 52.1952 158.7 52.2455C158.585 52.2958 158.482 52.3694 158.398 52.4616C158.313 52.5538 158.248 52.6626 158.207 52.7811C158.166 52.8997 158.151 53.0254 158.161 53.1503C159.177 57.5395 159.608 61.7099 159.18 65.5588C159.199 65.7852 159.303 65.9961 159.47 66.1501C159.637 66.3041 159.855 66.3901 160.082 66.3913H165.926C166.153 66.3902 166.371 66.3041 166.538 66.1501C166.705 65.9961 166.808 65.7852 166.828 65.5588C166.503 61.3947 166.847 57.2053 167.847 53.1503C167.857 53.0254 167.841 52.8997 167.801 52.7811C167.76 52.6626 167.695 52.5538 167.61 52.4616C167.525 52.3694 167.422 52.2958 167.308 52.2455C167.193 52.1952 167.069 52.1692 166.944 52.1692H159.064Z" fill="#C19D65"/>
<path d="M168.315 53.8231L167.879 51.7496C167.839 51.5611 167.736 51.3919 167.586 51.2705C167.437 51.1491 167.25 51.0828 167.058 51.0828H164.337C164.326 51.0466 164.309 51.0128 164.285 50.983L163.983 50.6045C163.954 50.5689 163.918 50.5401 163.877 50.5203C163.836 50.5005 163.791 50.4902 163.745 50.4902H162.065C162.019 50.4902 161.974 50.5005 161.933 50.5203C161.892 50.5401 161.856 50.5689 161.828 50.6045L161.525 50.983C161.502 51.0128 161.485 51.0466 161.474 51.0828H158.95C158.757 51.0828 158.571 51.1491 158.421 51.2705C158.272 51.3919 158.169 51.5611 158.129 51.7496L157.693 53.8231C157.667 53.9454 157.669 54.0719 157.699 54.1933C157.728 54.3148 157.784 54.4282 157.863 54.5252C157.941 54.6223 158.04 54.7005 158.153 54.7543C158.266 54.808 158.389 54.8359 158.514 54.8359C161.524 56.0924 164.521 56.3403 167.494 54.8359C167.619 54.8359 167.742 54.808 167.855 54.7543C167.967 54.7005 168.067 54.6223 168.145 54.5252C168.224 54.4282 168.28 54.3148 168.309 54.1933C168.338 54.0719 168.34 53.9454 168.315 53.8231Z" fill="#3F3D56"/>
<path d="M132.531 12.6001C132.448 12.6001 132.365 12.6175 132.288 12.6512C132.211 12.6849 132.142 12.7343 132.085 12.796C132.028 12.8578 131.985 12.9307 131.958 13.0101C131.93 13.0896 131.92 13.1738 131.927 13.2575L132.609 21.5725C132.622 21.7242 132.692 21.8656 132.804 21.9688C132.916 22.072 133.062 22.1296 133.214 22.1304H137.13C137.282 22.1296 137.428 22.072 137.54 21.9688C137.652 21.8656 137.721 21.7242 137.735 21.5725L138.417 13.2575C138.424 13.1738 138.413 13.0896 138.386 13.0101C138.359 12.9307 138.315 12.8578 138.259 12.796C138.202 12.7343 138.133 12.6849 138.056 12.6512C137.979 12.6175 137.896 12.6001 137.812 12.6001H132.531Z" fill="white"/>
<path d="M138.731 13.7085L138.438 12.319C138.412 12.1927 138.343 12.0793 138.243 11.998C138.143 11.9166 138.017 11.8722 137.889 11.8722H136.065C136.058 11.848 136.046 11.8253 136.031 11.8053L135.828 11.5517C135.809 11.5278 135.785 11.5085 135.757 11.4952C135.73 11.482 135.699 11.4751 135.669 11.4751H134.543C134.512 11.4751 134.482 11.482 134.454 11.4952C134.427 11.5085 134.403 11.5278 134.384 11.5517L134.181 11.8053C134.165 11.8253 134.154 11.848 134.147 11.8722H132.455C132.326 11.8722 132.201 11.9166 132.101 11.998C132.001 12.0793 131.932 12.1927 131.905 12.319L131.613 13.7085C131.596 13.7904 131.597 13.8752 131.617 13.9566C131.636 14.038 131.674 14.1139 131.727 14.179C131.779 14.244 131.846 14.2964 131.921 14.3324C131.997 14.3685 132.079 14.3871 132.163 14.3871H138.181C138.264 14.3871 138.347 14.3685 138.422 14.3324C138.498 14.2964 138.564 14.244 138.617 14.179C138.67 14.1139 138.707 14.038 138.727 13.9566C138.747 13.8752 138.748 13.7904 138.731 13.7085Z" fill="#CCCCCC"/>
<path d="M135.25 26.8845C133.113 26.8845 131.024 26.25 129.247 25.0611C127.47 23.8723 126.085 22.1826 125.267 20.2056C124.449 18.2286 124.235 16.0532 124.652 13.9544C125.069 11.8557 126.098 9.92788 127.609 8.41476C129.12 6.90165 131.046 5.87121 133.142 5.45375C135.238 5.03628 137.41 5.25054 139.385 6.06943C141.359 6.88832 143.047 8.27506 144.234 10.0543C145.421 11.8335 146.055 13.9253 146.055 16.0652C146.052 18.9337 144.913 21.6837 142.887 23.712C140.861 25.7404 138.115 26.8813 135.25 26.8845ZM135.25 5.90157C133.242 5.90157 131.28 6.49766 129.611 7.61445C127.941 8.73124 126.64 10.3186 125.872 12.1757C125.104 14.0329 124.903 16.0765 125.294 18.048C125.686 20.0196 126.653 21.8305 128.072 23.252C129.492 24.6734 131.301 25.6414 133.27 26.0335C135.239 26.4257 137.28 26.2244 139.134 25.4551C140.989 24.6859 142.574 23.3832 143.69 21.7118C144.805 20.0404 145.4 18.0754 145.4 16.0652C145.397 13.3706 144.327 10.7872 142.424 8.88181C140.521 6.97643 137.941 5.90464 135.25 5.90157Z" fill="#F2F2F2"/>
<path d="M168.321 164.585H103.816L103.888 157.081L103.895 156.429L104.471 97.7019H167.993L168.075 114.667L168.079 115.32L168.321 164.585Z" fill="#E6E6E6"/>
<path d="M205.61 164.899L0.389838 165C0.286634 165 0.187755 164.958 0.114884 164.885C0.0420123 164.812 0.00109863 164.713 0.00109863 164.61C0.00109863 164.506 0.0420123 164.407 0.114884 164.334C0.187755 164.261 0.286634 164.219 0.389838 164.219L205.61 164.118C205.714 164.118 205.813 164.16 205.886 164.233C205.959 164.306 206 164.405 206 164.509C206 164.612 205.959 164.712 205.886 164.785C205.813 164.858 205.714 164.899 205.61 164.899Z" fill="#CACACA"/>
<path d="M100.649 77.3401C100.524 77.3401 100.4 77.3661 100.286 77.4164C100.171 77.4667 100.068 77.5403 99.9831 77.6325C99.8983 77.7247 99.8335 77.8335 99.7928 77.952C99.752 78.0705 99.7363 78.1963 99.7466 78.3212C100.672 82.6862 101.078 86.8487 100.765 90.7297C100.785 90.9561 100.888 91.167 101.055 91.321C101.222 91.475 101.441 91.561 101.668 91.5622H107.511C107.738 91.561 107.957 91.475 108.123 91.321C108.29 91.167 108.394 90.9561 108.414 90.7297C107.942 86.815 108.441 82.6353 109.432 78.3212C109.443 78.1963 109.427 78.0706 109.386 77.952C109.345 77.8335 109.281 77.7247 109.196 77.6325C109.111 77.5403 109.008 77.4667 108.893 77.4164C108.779 77.3661 108.655 77.3401 108.53 77.3401H100.649Z" fill="#C19D65"/>
<path d="M109.9 78.994L109.464 76.9205C109.425 76.732 109.321 76.5628 109.172 76.4414C109.023 76.32 108.836 76.2537 108.644 76.2537H105.922C105.911 76.2175 105.894 76.1837 105.871 76.1539L105.569 75.7754C105.54 75.7398 105.504 75.711 105.463 75.6912C105.422 75.6714 105.377 75.6611 105.331 75.6611H103.651C103.605 75.6611 103.56 75.6714 103.519 75.6912C103.478 75.711 103.442 75.7398 103.413 75.7754L103.111 76.1539C103.088 76.1837 103.07 76.2175 103.06 76.2537H100.535C100.343 76.2537 100.156 76.32 100.007 76.4414C99.8575 76.5628 99.7543 76.732 99.7147 76.9205L99.2787 78.994C99.253 79.1163 99.2549 79.2428 99.2842 79.3642C99.3135 79.4857 99.3695 79.5991 99.4482 79.6961C99.5268 79.7932 99.6261 79.8714 99.7387 79.9252C99.8514 79.9789 99.9746 80.0068 100.099 80.0068C103.025 80.9118 106.154 80.9118 109.08 80.0068C109.204 80.0068 109.328 79.9789 109.44 79.9252C109.553 79.8714 109.652 79.7932 109.731 79.6961C109.809 79.5991 109.865 79.4857 109.895 79.3642C109.924 79.2428 109.926 79.1163 109.9 78.994Z" fill="#3F3D56"/>
<path d="M134.824 124.914H104.798V125.57H134.824V124.914Z" fill="#F2F2F2"/>
<path d="M167.895 100.653H137.869V101.308H167.895V100.653Z" fill="#F2F2F2"/>
<path d="M151.196 145.897H121.17V146.553H151.196V145.897Z" fill="#F2F2F2"/>
<path d="M168.079 115.406H153.914V114.75H168.075L168.079 115.406Z" fill="#F2F2F2"/>
<path d="M107.83 96.0627H93.6655V95.407H107.827L107.83 96.0627Z" fill="#F2F2F2"/>
<path d="M118.963 31.4743H104.798V30.8186H118.96L118.963 31.4743Z" fill="#F2F2F2"/>
<path d="M166.441 18.0322H152.277V17.3765H166.438L166.441 18.0322Z" fill="#F2F2F2"/>
<path d="M152.034 31.4743H137.869V30.8186H152.031L152.034 31.4743Z" fill="#F2F2F2"/>
<path d="M112.886 156.717V157.372H103.888L103.895 156.717H112.886Z" fill="#F2F2F2"/>
<path d="M167.204 65.9362C168.688 65.9362 169.89 64.7319 169.89 63.2463C169.89 61.7607 168.688 60.5564 167.204 60.5564C165.72 60.5564 164.518 61.7607 164.518 63.2463C164.518 64.7319 165.72 65.9362 167.204 65.9362Z" fill="#FFB6B6"/>
<path d="M128.528 59.6674L127.404 57.8726C127.404 57.8726 123.748 56.9674 122.243 59.3934C120.737 61.8193 112.637 87.9109 112.637 87.9109L117.222 89.5502L126.062 69.3029L128.528 59.6674Z" fill="#3F3D56"/>
</g>
<defs>
<clipPath id="clip0_32_1753">
<rect width="206" height="165" fill="white"/>
</clipPath>
</defs>
</svg>
