<svg width="24" height="24" viewBox="0 0 24 24" fill="none" xmlns="http://www.w3.org/2000/svg">
<mask id="mask0_104_1899" style="mask-type:alpha" maskUnits="userSpaceOnUse" x="0" y="0" width="24" height="24">
<rect width="24" height="24" fill="#D9D9D9"/>
</mask>
<g mask="url(#mask0_104_1899)">
<path d="M10.646 19H12.501V17.75C13.3843 17.6 14.144 17.275 14.78 16.775C15.416 16.275 15.734 15.5333 15.734 14.55C15.734 13.85 15.522 13.2083 15.098 12.625C14.674 12.0417 13.826 11.5333 12.554 11.1C11.494 10.7667 10.7608 10.475 10.3545 10.225C9.94814 9.975 9.74497 9.63333 9.74497 9.2C9.74497 8.76667 9.90856 8.425 10.2358 8.175C10.5622 7.925 11.0346 7.8 11.653 7.8C12.2183 7.8 12.66 7.92933 12.978 8.188C13.296 8.446 13.5256 8.76667 13.667 9.15L15.363 8.5C15.1686 7.91667 14.8111 7.40833 14.2903 6.975C13.7687 6.54167 13.19 6.3 12.554 6.25V5H10.699V6.25C9.81564 6.43333 9.12664 6.8 8.63197 7.35C8.1373 7.9 7.88997 8.51667 7.88997 9.2C7.88997 9.98333 8.13306 10.6167 8.61925 11.1C9.10473 11.5833 9.86864 12 10.911 12.35C12.024 12.7333 12.7971 13.075 13.2303 13.375C13.6627 13.675 13.879 14.0667 13.879 14.55C13.879 15.1 13.6712 15.504 13.2557 15.762C12.8409 16.0207 12.342 16.15 11.759 16.15C11.176 16.15 10.6594 15.979 10.2092 15.637C9.7584 15.2957 9.42697 14.7833 9.21497 14.1L7.46597 14.75C7.7133 15.55 8.09773 16.196 8.61925 16.688C9.14006 17.1793 9.81564 17.5167 10.646 17.7V19ZM11.6 22C10.1336 22 8.75564 21.7373 7.46597 21.212C6.1763 20.6873 5.05447 19.975 4.10047 19.075C3.14647 18.175 2.3914 17.1167 1.83525 15.9C1.2784 14.6833 0.999969 13.3833 0.999969 12C0.999969 10.6167 1.2784 9.31667 1.83525 8.1C2.3914 6.88333 3.14647 5.825 4.10047 4.925C5.05447 4.025 6.1763 3.31233 7.46597 2.787C8.75564 2.26233 10.1336 2 11.6 2C13.0663 2 14.4443 2.26233 15.734 2.787C17.0236 3.31233 18.1455 4.025 19.0995 4.925C20.0535 5.825 20.8085 6.88333 21.3647 8.1C21.9215 9.31667 22.2 10.6167 22.2 12C22.2 13.3833 21.9215 14.6833 21.3647 15.9C20.8085 17.1167 20.0535 18.175 19.0995 19.075C18.1455 19.975 17.0236 20.6873 15.734 21.212C14.4443 21.7373 13.0663 22 11.6 22Z" fill="#996E38"/>
</g>
</svg>
